<svg display="none" width="0" height="0" version="1.1" xmlns="http://www.w3.org/2000/svg" xmlns:xlink="http://www.w3.org/1999/xlink">
	<symbol id="facebookSocialIcon" viewBox="0 0 20 20">
		 <path d="M18.9 0H1.1C.5 0 0 .5 0 1.1v17.8c0 .6.5 1.1 1.1 1.1h9.6v-7.7H8.1v-3h2.6V7c0-2.6 1.6-4 3.9-4 1.1 0 2.1.1 2.3.1v2.7h-1.6c-1.3 0-1.5.6-1.5 1.5v1.9h3l-.4 3h-2.6V20h5.1c.6 0 1.1-.5 1.1-1.1V1.1c0-.6-.5-1.1-1.1-1.1z"/>
	</symbol>
	<symbol id="githubSocialIcon" viewBox="0 0 20 20">
		<path d="M10 0C4.5 0 0 4.5 0 10c0 4.4 2.9 8.2 6.8 9.5.5.1.7-.2.7-.5v-1.7c-2.8.6-3.4-1.3-3.4-1.3-.4-1.2-1.1-1.5-1.1-1.5-.9-.6.1-.6.1-.6 1 .1 1.5 1 1.5 1 .9 1.6 2.4 1.1 2.9.9.1-.6.3-1.1.6-1.3-2.1-.3-4.5-1.2-4.5-5 0-1.1.4-2 1-2.7-.1-.3-.4-1.3.1-2.7 0 0 .8-.3 2.7 1 .9-.1 1.8-.3 2.6-.3s1.7.1 2.5.3c1.9-1.3 2.7-1 2.7-1 .5 1.4.2 2.4.1 2.6.6.7 1 1.6 1 2.7 0 3.8-2.3 4.7-4.6 4.9.4.3.7.9.7 1.9v2.7c0 .3.2.6.7.5 4-1.3 6.8-5.1 6.8-9.5C20 4.5 15.5 0 10 0z"/>
	</symbol>
	<symbol id="instagramSocialIcon" viewBox="0 0 20 20">
		<path d="M20 2.6v14.8c0 .7-.3 1.3-.8 1.8s-1.1.8-1.8.8H2.6c-.7 0-1.3-.3-1.8-.8-.5-.6-.8-1.2-.8-1.9V2.6C0 1.9.3 1.3.8.8S1.9 0 2.6 0h14.9c.7 0 1.3.3 1.8.8.4.5.7 1.1.7 1.8zm-2.3 14.2V8.5H16c.2.5.3 1.1.3 1.7 0 1.1-.3 2.1-.8 3-.6.9-1.3 1.7-2.3 2.2s-2 .8-3.1.8c-1.7 0-3.2-.6-4.4-1.8s-1.8-2.6-1.8-4.3c0-.6.1-1.2.3-1.7h-2v8.3c0 .2.1.4.2.6.2.2.3.2.6.2h13.9c.2 0 .4-.1.6-.2s.2-.3.2-.5zm-4.8-4.1C13.6 12 14 11 14 10s-.4-2-1.2-2.8-1.7-1.1-2.8-1.1-2 .4-2.8 1.1C6.4 8 6 8.9 6 10s.4 2 1.2 2.8 1.7 1.1 2.8 1.1c1.1 0 2.1-.4 2.9-1.2zm4.8-7.4V3.1c0-.2-.1-.5-.3-.6-.2-.2-.4-.3-.6-.3h-2.3c-.3 0-.5.1-.6.3-.2.2-.3.4-.3.6v2.1c0 .3.1.5.3.6.2.2.4.3.6.3h2.3c.3 0 .5-.1.6-.3.2-.1.3-.3.3-.5z"/>
	</symbol>
	<symbol id="linkedinSocialIcon" viewBox="0 0 20 20">
		<path d="M18.5 0h-17C.7 0 0 .6 0 1.4v17.1c0 .9.7 1.5 1.5 1.5h17c.8 0 1.5-.6 1.5-1.4V1.4c0-.8-.7-1.4-1.5-1.4zM5.9 17H3V7.5h3V17zM4.4 6.2c-1 0-1.7-.8-1.7-1.7s.8-1.7 1.7-1.7c.9 0 1.7.8 1.7 1.7s-.7 1.7-1.7 1.7zM17 17h-3v-4.6c0-1.1 0-2.5-1.5-2.5s-1.8 1.2-1.8 2.5V17h-3V7.5h2.8v1.3c.4-.8 1.4-1.5 2.8-1.5 3 0 3.6 2 3.6 4.5V17z"/>
	</symbol>
	<symbol id="twitterSocialIcon" viewBox="0 0 20 20">
		<path d="M20 3.8c-.7.3-1.5.5-2.4.6.8-.5 1.5-1.3 1.8-2.3-.8.5-1.7.8-2.6 1-.7-.8-1.8-1.3-3-1.3-2.3 0-4.1 1.8-4.1 4.1 0 .3 0 .6.1.9-3.4-.1-6.4-1.7-8.4-4.2C1 3.2.8 3.9.8 4.7c0 1.4.7 2.7 1.8 3.4-.6 0-1.2-.2-1.8-.5v.1c0 2 1.4 3.6 3.3 4-.3.1-.7.1-1.1.1-.3 0-.5 0-.8-.1.5 1.6 2 2.8 3.8 2.8-1.4 1.1-3.2 1.8-5.1 1.8-.3 0-.7 0-1-.1 1.8 1.2 4 1.8 6.3 1.8 7.5 0 11.7-6.3 11.7-11.7v-.5c.9-.5 1.5-1.2 2.1-2z"/>
	</symbol>
	<symbol id="youtubeSocialIcon" viewBox="0 0 20 20">
		<path d="M19.8 6s-.2-1.4-.8-2c-.8-.8-1.6-.8-2-.8-2.8-.2-7-.2-7-.2s-4.2 0-7 .2c-.4 0-1.2 0-2 .8-.6.6-.8 2-.8 2S0 7.6 0 9.2v1.5c0 1.7.2 3.3.2 3.3s.2 1.4.8 2c.8.8 1.8.8 2.2.9 1.6.1 6.8.1 6.8.1s4.2 0 7-.2c.4 0 1.2-.1 2-.8.6-.6.8-2 .8-2s.2-1.6.2-3.2V9.2c0-1.6-.2-3.2-.2-3.2zM7.9 12.6V7l5.4 2.8-5.4 2.8z"/>
	</symbol>
</svg>